<svg width="75" height="31" viewBox="0 0 75 31" fill="none" xmlns="http://www.w3.org/2000/svg">
<mask id="mask0_559_74" style="mask-type:luminance" maskUnits="userSpaceOnUse" x="0" y="0" width="75" height="31">
<path d="M60.695 0.0696833C56.8725 0.139366 53.5622 1.71884 51.0795 5.29588C46.1733 12.3106 41.267 19.3021 36.3607 26.3168C36.0849 26.7117 35.7893 27.0833 35.4938 27.4782C35.3558 27.4085 35.3558 27.4085 35.1982 27.3621V2.32275C35.1982 1.09169 34.3707 0.0929123 33.3264 0.0929123C28.9915 0.0464572 18.1347 7.06079e-07 12.2235 0.0696833C9.46498 0.0929109 6.90349 1.04524 4.67695 3.04281C0.57855 6.73599 -1.03717 13.6346 0.677065 20.0221C2.33219 26.1542 6.72615 30.219 12.1447 30.3584C17.1692 30.4745 22.1937 30.3816 27.2182 30.3816C27.3758 30.3816 27.5334 30.3119 27.7305 30.2655V12.8448H12.2038C11.1595 12.8448 10.3122 13.8436 10.3122 15.0747V18.0943C14.6471 18.0943 18.9031 18.0246 23.1789 18.0246V24.8767C19.0608 24.8767 15.0412 24.8999 11.0216 24.8767C10.7851 24.8767 10.5487 24.7838 10.3122 24.6909C6.39118 23.3669 4.02672 18.8143 4.63754 13.7043C5.22866 8.57096 8.30246 5.38879 12.8343 5.34234C15.4155 5.31911 17.9968 5.31911 20.578 5.34234C23.4941 5.34234 26.3906 5.34234 29.2871 5.31911C30.3511 5.29588 30.5875 5.71398 30.5875 6.89858C30.5481 14.0527 30.5678 21.23 30.5678 28.4073V30.3584C33.5628 30.3584 36.341 30.3816 39.1193 30.3119C39.474 30.2887 39.9074 29.8242 40.1833 29.4293C44.991 22.6004 49.8185 15.7483 54.6065 8.89615C55.9858 6.92181 57.7197 5.57461 59.9069 5.50493C64.3796 5.34234 68.8721 5.38879 73.3646 5.34234C73.8572 5.34234 74.3301 5.34234 74.9803 5.34234C74.9803 4.62228 75 3.368 75 2.25307C75 1.02201 74.1527 0.023229 73.1084 0.023229C72.3006 1.41735e-06 71.2563 0 70.1332 0C66.9805 0 63.0595 0.0232283 60.695 0.0696833ZM49.5426 20.5099C49.385 20.7654 49.4638 21.3693 49.6017 21.7178C51.4145 26.3633 54.4489 29.5222 58.8034 30.0564C61.5817 30.4049 64.3993 30.3816 67.1973 30.3816C68.3795 30.3584 69.5617 30.3584 70.744 30.3816C72.1035 30.4049 73.4631 30.3816 74.9015 30.3816V26.642C74.9015 25.8058 74.3104 25.109 73.601 25.109H73.5813C72.3203 25.109 71.0395 25.109 69.7588 25.109C66.8426 25.1322 63.9264 25.1322 61.0103 25.0857C56.833 25.0161 53.8775 22.0197 53.0696 17.2348C53.0105 16.8632 52.912 16.4916 52.7938 15.818C51.6115 17.5136 50.5278 18.9769 49.5426 20.5099Z" fill="white"/>
</mask>
<g mask="url(#mask0_559_74)">
<path d="M-98.1697 54.9464L-5.90943 -133.43L169.293 -14.1876L77.033 174.189L-98.1697 54.9464Z" fill="url(#paint0_linear_559_74)"/>
</g>
<defs>
<linearGradient id="paint0_linear_559_74" x1="26.7306" y1="42.3686" x2="61.2743" y2="-8.38632" gradientUnits="userSpaceOnUse">
<stop stop-color="#F8D066"/>
<stop offset="0.210714" stop-color="#996326"/>
<stop offset="0.405952" stop-color="#9A6527"/>
<stop offset="0.522619" stop-color="#FADD79"/>
<stop offset="0.627381" stop-color="#DDA529"/>
<stop offset="0.739286" stop-color="#FADD79"/>
<stop offset="1" stop-color="#A45A25"/>
</linearGradient>
</defs>
</svg>
